<svg width="64" height="64" viewBox="0 0 64 64" fill="none" xmlns="http://www.w3.org/2000/svg">
<path d="M50.7588 28.6897H57.3795V52.9656H50.7588V28.6897Z" fill="#898890"/>
<path d="M2.20703 52.9656H61.7932V57.3794H2.20703V52.9656Z" fill="#898890"/>
<path d="M59.5858 24.2759V28.6897H48.5513V24.2759H59.5858Z" fill="#E0E0E2"/>
<path d="M15.4481 24.2759V28.6897H4.41357V24.2759H15.4481Z" fill="#E0E0E2"/>
<path d="M37.5169 24.2759V28.6897H26.4824V24.2759H37.5169Z" fill="#E0E0E2"/>
<path d="M37.5169 48.5518V52.9656H26.4824V48.5518H37.5169Z" fill="#E0E0E2"/>
<path d="M15.4481 48.5518V52.9656H4.41357V48.5518H15.4481Z" fill="#E0E0E2"/>
<path d="M64 57.3794V61.7932C63.9962 63.0103 63.0102 63.9963 61.7931 64.0001H2.2069C0.989763 63.9963 0.00377156 63.0103 0 61.7932V57.3794H64Z" fill="#57565C"/>
<path d="M64 14.3448V19.8621H0V14.3448L32 0L64 14.3448Z" fill="#E0E0E2"/>
<path d="M61.7932 19.8621V24.2759H2.20703V19.8621H61.7932Z" fill="#898890"/>
<path d="M36.414 11.0344C36.414 13.4719 34.4377 15.4482 32.0002 15.4482C29.5627 15.4482 27.5864 13.4719 27.5864 11.0344C27.5864 8.5969 29.5627 6.62061 32.0002 6.62061C34.4377 6.62061 36.414 8.5969 36.414 11.0344Z" fill="#FFDA44"/>
<path d="M28.6895 28.6897H35.3101V48.5518H28.6895V28.6897Z" fill="#898890"/>
<path d="M6.62061 28.6897H13.2413V48.5518H6.62061V28.6897Z" fill="#898890"/>
<path d="M64 45.2414C64 51.9451 58.5657 57.3794 51.8621 57.3794C45.1584 57.3794 39.7241 51.9451 39.7241 45.2414C39.7241 38.5378 45.1584 33.1035 51.8621 33.1035C58.5657 33.1035 64 38.5378 64 45.2414Z" fill="#FF9811"/>
<path d="M60.6898 45.2414C60.6898 50.1169 56.7378 54.069 51.8623 54.069C46.9867 54.069 43.0347 50.1169 43.0347 45.2414C43.0347 40.3659 46.9867 36.4138 51.8623 36.4138C56.7378 36.4138 60.6898 40.3659 60.6898 45.2414Z" fill="#FFDA44"/>
<path d="M56.3956 43.5369H55.5156V39.8182H53.6811V43.5369H51.3693L48.799 39.8182H47.1484V43.5369H46.2536V44.5312H47.1484V45.6847H46.2536V46.679H47.1484V50H48.9929V46.679H51.5781L53.875 50H55.5156V46.679H56.3956V45.6847H55.5156V44.5312H56.3956V43.5369ZM50.0916 44.5312L50.892 45.6847H48.9929V44.5312H50.0916ZM53.6811 44.5312V45.6847H52.8509L52.0554 44.5312H53.6811ZM48.9929 43.5369V43.0646H49.0774L49.4055 43.5369H48.9929ZM53.5369 46.679H53.6811V46.7585H53.5916L53.5369 46.679Z" fill="#FF8030"/>
<path d="M2.20703 19.8621H61.7932V20.9655H2.20703V19.8621Z" fill="#787680"/>
<path d="M6.62061 28.6897H13.2413V29.7931H6.62061V28.6897Z" fill="#787680"/>
<path d="M28.6895 28.6897H35.3101V29.7931H28.6895V28.6897Z" fill="#787680"/>
<path d="M50.7588 28.6897H57.3795V29.7931H50.7588V28.6897Z" fill="#787680"/>
<path d="M4.41357 24.2759H15.4481V25.3793H4.41357V24.2759Z" fill="#D8D7DA"/>
<path d="M26.4829 24.2759H37.5174V25.3793H26.4829V24.2759Z" fill="#D8D7DA"/>
<path d="M48.5518 24.2759H59.5862V25.3793H48.5518V24.2759Z" fill="#D8D7DA"/>
</svg>
