<svg width="64" height="64" viewBox="0 0 64 64" fill="none" xmlns="http://www.w3.org/2000/svg">
<g clip-path="url(#clip0)">
<path d="M31.0959 0.206719L2.43723 14.042C2.07786 14.2155 1.84961 14.5792 1.84961 14.9782V49.0217C1.84961 49.4207 2.07798 49.7845 2.43723 49.958L31.0959 63.7932C31.667 64.069 32.3327 64.069 32.9039 63.7932L61.5625 49.958C61.9219 49.7845 62.1501 49.4207 62.1501 49.0217V14.9782C62.1501 14.5792 61.9217 14.2155 61.5625 14.042L32.9039 0.206719C32.3327 -0.0689062 31.667 -0.0689062 31.0959 0.206719Z" fill="#FFE17D"/>
<path d="M2.02248 14.4092C1.91323 14.5756 1.84961 14.7714 1.84961 14.9783V49.0218C1.84961 49.4208 2.07798 49.7846 2.43723 49.9581L31.0959 63.7932C31.3814 63.9311 31.6906 63.9999 31.9999 63.9999V28.8811L2.02248 14.4092Z" fill="#FFC350"/>
<path d="M61.9774 14.4092C62.0866 14.5756 62.1502 14.7714 62.1502 14.9783V49.0218C62.1502 49.4208 61.9219 49.7846 61.5626 49.9581L32.904 63.7932C32.6185 63.9311 32.3092 64.0001 32 64.0001V28.8811L61.9774 14.4092Z" fill="#FFD164"/>
<path d="M10.4258 47.2072C10.2746 47.2072 10.1202 47.1737 9.97508 47.1037L5.55046 44.9676C5.03271 44.7178 4.81646 44.0964 5.06621 43.5797C5.31496 43.0629 5.93833 42.8477 6.45408 43.0954L10.8787 45.2317C11.3965 45.4814 11.6127 46.1028 11.363 46.6196C11.1843 46.9909 10.8127 47.2072 10.4258 47.2072Z" fill="#FFE17D"/>
<path d="M14.4984 44.5564C14.3471 44.5564 14.1928 44.5229 14.0476 44.4529L5.55663 40.3541C5.03988 40.1044 4.82263 39.483 5.07238 38.9662C5.32113 38.4505 5.94551 38.2342 6.46026 38.482L14.9511 42.5807C15.4679 42.8305 15.6851 43.4519 15.4354 43.9686C15.2569 44.34 14.8853 44.5564 14.4984 44.5564Z" fill="#FFF6D8"/>
<path d="M51.8184 19.2965L21.7357 4.76367L13.8057 8.60742L43.9559 23.1628L51.8184 19.2965Z" fill="#FF8087"/>
<path d="M43.9561 23.1628V34.4386C43.9561 34.8219 44.3567 35.0734 44.7019 34.9068L51.2309 31.7549C51.5903 31.5814 51.8186 31.2176 51.8186 30.8186V19.2966L43.9561 23.1628Z" fill="#E6646E"/>
</g>
<defs>
<clipPath id="clip0">
<rect width="64" height="64" fill="white"/>
</clipPath>
</defs>
</svg>
