<svg width="64" height="64" viewBox="0 0 64 64" fill="none" xmlns="http://www.w3.org/2000/svg">
<g clip-path="url(#clip0)">
<path d="M50.4814 48.1411H45.0347C43.9992 48.1411 43.1597 48.9806 43.1597 50.0161V62.0156C43.1597 63.0511 43.9992 63.8906 45.0347 63.8906H64V61.6597C64 54.1936 57.9475 48.1411 50.4814 48.1411Z" fill="#D20041"/>
<path d="M47.0506 31.3826C44.6991 31.3826 42.4013 32.1989 40.5806 33.6813C40.1257 34.0517 39.8902 34.5912 39.8898 35.1353H32.2627V51.8888H47.0504C52.7041 51.8888 57.3036 47.2893 57.3036 41.6357C57.3038 35.9821 52.7042 31.3826 47.0506 31.3826Z" fill="#FFDDCE"/>
<path d="M47.0505 31.3826C47.0497 31.3826 47.0491 31.3826 47.0483 31.3826V51.8888H47.0505C52.7041 51.8888 57.3036 47.2893 57.3036 41.6357C57.3037 35.9821 52.7041 31.3826 47.0505 31.3826Z" fill="#FFDDCE"/>
<path d="M20.8404 50.0161C20.8404 48.9806 20.0009 48.1411 18.9654 48.1411H13.5186C6.0525 48.1411 0 54.1936 0 61.6597V63.8906H18.9654C20.0009 63.8906 20.8404 63.0511 20.8404 62.0156V50.0161Z" fill="#FEBF00"/>
<path d="M32.0453 35.1353H24.1102C24.1098 34.5912 23.8743 34.0517 23.4194 33.6813C21.5987 32.1989 19.3009 31.3826 16.9494 31.3826C11.2958 31.3826 6.69629 35.9821 6.69629 41.6357C6.69629 47.2893 11.2958 51.8888 16.9494 51.8888H32.0453V35.1353Z" fill="#FFECE2"/>
<path d="M35.2029 44.7856H28.7978C19.6623 44.7856 12.2324 52.2249 12.2446 61.3634V63.9999H51.7559V61.3634V61.3403C51.7559 52.2126 44.3305 44.7856 35.2029 44.7856Z" fill="#38336B"/>
<path d="M51.7554 61.2394L51.7556 64H32V44.7856H35.2026C44.3303 44.7856 51.7554 52.1116 51.7554 61.2394Z" fill="#2E2654"/>
<path d="M42.9691 42.4921C45.4769 36.4421 42.6053 29.5047 36.5553 26.9969C30.5053 24.4892 23.5679 27.3608 21.0602 33.4108C18.5525 39.4607 21.424 46.3982 27.474 48.9059C33.524 51.4136 40.4614 48.5421 42.9691 42.4921Z" fill="#E5AE8C"/>
<path d="M32 26.0879V49.7989C38.5371 49.7989 43.8555 44.4805 43.8555 37.9434C43.8555 31.4063 38.5371 26.0879 32 26.0879Z" fill="#DD9366"/>
<path d="M20.1445 37.9434C20.1445 44.4805 25.4629 49.7989 32 49.7989V26.0879C25.4629 26.0879 20.1445 31.4063 20.1445 37.9434Z" fill="#E5AE8C"/>
<path d="M49.8507 0H38.4895C37.454 0 36.6145 0.8395 36.6145 1.875C36.6145 2.9105 37.454 3.75 38.4895 3.75H45.3685L34.9153 14.35L24.0902 6.35162C23.3168 5.78025 22.2368 5.88625 21.5895 6.59737L12.7151 16.3449C12.018 17.1106 12.0736 18.2965 12.8393 18.9936C13.1987 19.3208 13.6506 19.4821 14.1011 19.4821C14.6105 19.4821 15.1181 19.2758 15.4881 18.8694L23.223 10.3734L33.9946 18.3321C34.745 18.8866 35.7888 18.8051 36.4438 18.1406L47.9757 6.4465V13.998C47.9757 15.0335 48.8152 15.873 49.8507 15.873C50.8862 15.873 51.7257 15.0335 51.7257 13.998V1.875C51.7257 0.8395 50.8862 0 49.8507 0V0Z" fill="#61C27C"/>
<path d="M49.8506 0H38.4894C37.4539 0 36.6144 0.8395 36.6144 1.875C36.6144 2.9105 37.4539 3.75 38.4894 3.75H45.3684L34.9152 14.35L32 12.196V16.8585L33.9945 18.3323C34.7449 18.8868 35.7887 18.8053 36.4437 18.1408L47.9756 6.44663V13.9981C47.9756 15.0336 48.8151 15.8731 49.8506 15.8731C50.8861 15.8731 51.7256 15.0336 51.7256 13.9981V1.875C51.7256 0.8395 50.8861 0 49.8506 0V0Z" fill="#04993F"/>
</g>
<defs>
<clipPath id="clip0">
<rect width="64" height="64" fill="white"/>
</clipPath>
</defs>
</svg>
