<svg width="16" height="16" viewBox="0 0 16 16" fill="none" xmlns="http://www.w3.org/2000/svg">
<path d="M7.99992 14.6667C11.6818 14.6667 14.6666 11.6819 14.6666 8.00001C14.6666 4.31811 11.6818 1.33334 7.99992 1.33334C4.31802 1.33334 1.33325 4.31811 1.33325 8.00001C1.33325 11.6819 4.31802 14.6667 7.99992 14.6667Z" stroke="#FAFAFA" stroke-width="1.3" stroke-linecap="round" stroke-linejoin="round"/>
<path d="M6.06006 6.00001C6.21679 5.55446 6.52616 5.17875 6.93336 4.93944C7.34056 4.70012 7.81932 4.61264 8.28484 4.69249C8.75036 4.77234 9.1726 5.01436 9.47678 5.3757C9.78095 5.73703 9.94743 6.19436 9.94673 6.66668C9.94673 8.00001 7.94673 8.66668 7.94673 8.66668" stroke="#FAFAFA" stroke-width="1.3" stroke-linecap="round" stroke-linejoin="round"/>
<path d="M8 10.6667V11" stroke="#FAFAFA" stroke-width="1.3" stroke-linecap="round" stroke-linejoin="round"/>
</svg>
