<svg width="1140" height="460" viewBox="0 0 1140 460" fill="none" xmlns="http://www.w3.org/2000/svg">
<rect width="1140" height="460" rx="8" fill="white"/>
<rect x="0.5" y="0.5" width="1139" height="459" rx="7.5" stroke="#2E5BFF" stroke-opacity="0.08"/>
<g opacity="0.5">
<path opacity="0.60681" d="M139.265 100.74V374.333" stroke="#8097B1" stroke-width="0.5" stroke-linecap="square" stroke-dasharray="2 2 2"/>
<path opacity="0.60681" d="M200.242 100.74V374.333" stroke="#8097B1" stroke-width="0.5" stroke-linecap="square" stroke-dasharray="2 2 2"/>
<path opacity="0.60681" d="M261.219 100.74V374.333" stroke="#8097B1" stroke-width="0.5" stroke-linecap="square" stroke-dasharray="2 2 2"/>
<path opacity="0.60681" d="M322.196 100.74V374.333" stroke="#8097B1" stroke-width="0.5" stroke-linecap="square" stroke-dasharray="2 2 2"/>
<path opacity="0.60681" d="M383.173 100.74V374.333" stroke="#8097B1" stroke-width="0.5" stroke-linecap="square" stroke-dasharray="2 2 2"/>
<path opacity="0.60681" d="M444.15 100.74V374.333" stroke="#8097B1" stroke-width="0.5" stroke-linecap="square" stroke-dasharray="2 2 2"/>
<path opacity="0.60681" d="M505.128 100.74V374.333" stroke="#8097B1" stroke-width="0.5" stroke-linecap="square" stroke-dasharray="2 2 2"/>
<path opacity="0.60681" d="M566.105 100.74V374.333" stroke="#8097B1" stroke-width="0.5" stroke-linecap="square" stroke-dasharray="2 2 2"/>
<path opacity="0.60681" d="M627.082 100.74V374.333" stroke="#8097B1" stroke-width="0.5" stroke-linecap="square" stroke-dasharray="2 2 2"/>
<path opacity="0.60681" d="M688.059 100.74V374.333" stroke="#8097B1" stroke-width="0.5" stroke-linecap="square" stroke-dasharray="2 2 2"/>
<path opacity="0.60681" d="M749.036 100.74V374.333" stroke="#8097B1" stroke-width="0.5" stroke-linecap="square" stroke-dasharray="2 2 2"/>
<path opacity="0.60681" d="M810.013 100.74V374.333" stroke="#8097B1" stroke-width="0.5" stroke-linecap="square" stroke-dasharray="2 2 2"/>
<path opacity="0.60681" d="M870.991 100.74V374.333" stroke="#8097B1" stroke-width="0.5" stroke-linecap="square" stroke-dasharray="2 2 2"/>
<path opacity="0.60681" d="M931.968 100.74V374.333" stroke="#8097B1" stroke-width="0.5" stroke-linecap="square" stroke-dasharray="2 2 2"/>
<path opacity="0.60681" d="M992.945 100.74V374.333" stroke="#8097B1" stroke-width="0.5" stroke-linecap="square" stroke-dasharray="2 2 2"/>
<path opacity="0.60681" d="M1053.92 100.74V374.333" stroke="#8097B1" stroke-width="0.5" stroke-linecap="square" stroke-dasharray="2 2 2"/>
<path opacity="0.60681" d="M1114.9 100.74V374.333" stroke="#8097B1" stroke-width="0.5" stroke-linecap="square" stroke-dasharray="2 2 2"/>
</g>
<g opacity="0.5">
<path opacity="0.756413" d="M81.3142 327.25H1115.12" stroke="#8097B1" stroke-width="0.5" stroke-linecap="square" stroke-dasharray="2 2 2 2"/>
<path opacity="0.756413" d="M79.54 282.25H1113.35" stroke="#8097B1" stroke-width="0.5" stroke-linecap="square" stroke-dasharray="2 2 2 2"/>
<path opacity="0.756413" d="M81.3142 236.25H1115.12" stroke="#8097B1" stroke-width="0.5" stroke-linecap="square" stroke-dasharray="2 2 2 2"/>
<path opacity="0.756413" d="M79.54 190.25H1113.35" stroke="#8097B1" stroke-width="0.5" stroke-linecap="square" stroke-dasharray="2 2 2 2"/>
<path opacity="0.756413" d="M81.3142 145.25H1115.12" stroke="#8097B1" stroke-width="0.5" stroke-linecap="square" stroke-dasharray="2 2 2 2"/>
<path opacity="0.756413" d="M79.54 100.25H1113.35" stroke="#8097B1" stroke-width="0.5" stroke-linecap="square" stroke-dasharray="2 2 2 2"/>
</g>
<path d="M78.7956 100.09V373.59" stroke="#E0E7FF" stroke-linecap="square"/>
<path d="M79.54 373.5H1113.35" stroke="#E0E7FF" stroke-linecap="square"/>
<path d="M41.3925 324.091H40.0928V332.678H39.9862L34.0203 324.091H32.7419V335H34.0629V326.435H34.1695L40.1141 335H41.3925V324.091ZM47.2532 335.149C49.3306 335.149 50.854 333.615 50.854 331.527C50.854 329.412 49.3839 327.862 47.381 327.862C46.646 327.862 45.9322 328.123 45.4847 328.48H45.4208L45.8043 325.263H50.364V324.091H44.6964L44.0359 329.46L45.2717 329.609C45.7244 329.284 46.4968 329.05 47.168 329.055C48.5582 329.066 49.5756 330.121 49.5756 331.548C49.5756 332.949 48.5955 333.977 47.2532 333.977C46.1346 333.977 45.245 333.258 45.1438 332.273H43.8654C43.9453 333.935 45.3782 335.149 47.2532 335.149ZM52.9914 335H54.2485V331.937L55.1274 331.122L58.1903 335H59.7883L56.0756 330.312L59.5326 326.818H57.9772L54.3976 330.462H54.2485V324.091H52.9914V335Z" fill="#B0BAC9"/>
<path d="M55.3125 380.149C57.7202 380.149 59.1051 378.109 59.1051 374.545C59.1051 371.009 57.6989 368.942 55.3125 368.942C52.9261 368.942 51.5199 371.009 51.5199 374.545C51.5199 378.109 52.9048 380.149 55.3125 380.149ZM55.3125 378.977C53.7251 378.977 52.7983 377.385 52.7983 374.545C52.7983 371.712 53.7358 370.092 55.3125 370.092C56.8892 370.092 57.8267 371.712 57.8267 374.545C57.8267 377.385 56.8999 378.977 55.3125 378.977Z" fill="#B0BAC9"/>
<path d="M34.1708 279.091H32.8711V287.678H32.7646L26.7987 279.091H25.5202V290H26.8413V281.435H26.9478L32.8924 290H34.1708V279.091ZM40.4577 279.091H39.1366L36.4094 280.902V282.244L39.0727 280.476H39.1366V290H40.4577V279.091ZM47.1533 290.149C49.561 290.149 50.9459 288.109 50.9459 284.545C50.9459 281.009 49.5397 278.942 47.1533 278.942C44.767 278.942 43.3607 281.009 43.3607 284.545C43.3607 288.109 44.7456 290.149 47.1533 290.149ZM47.1533 288.977C45.566 288.977 44.6391 287.385 44.6391 284.545C44.6391 281.712 45.5766 280.092 47.1533 280.092C48.73 280.092 49.6675 281.712 49.6675 284.545C49.6675 287.385 48.7407 288.977 47.1533 288.977ZM52.9914 290H54.2485V286.937L55.1274 286.122L58.1903 290H59.7883L56.0756 285.312L59.5326 281.818H57.9772L54.3976 285.462H54.2485V279.091H52.9914V290Z" fill="#B0BAC9"/>
<path d="M34.4198 234.091H33.1201V242.678H33.0136L27.0477 234.091H25.7693V245H27.0903V236.435H27.1968L33.1414 245H34.4198V234.091ZM40.7067 234.091H39.3857L36.6584 235.902V237.244L39.3217 235.476H39.3857V245H40.7067V234.091ZM47.2532 245.149C49.3306 245.149 50.854 243.615 50.854 241.527C50.854 239.412 49.3839 237.862 47.381 237.862C46.646 237.862 45.9322 238.123 45.4847 238.48H45.4208L45.8043 235.263H50.364V234.091H44.6964L44.0359 239.46L45.2717 239.609C45.7244 239.284 46.4968 239.05 47.168 239.055C48.5582 239.066 49.5756 240.121 49.5756 241.548C49.5756 242.949 48.5955 243.977 47.2532 243.977C46.1346 243.977 45.245 243.258 45.1438 242.273H43.8654C43.9453 243.935 45.3782 245.149 47.2532 245.149ZM52.9914 245H54.2485V241.937L55.1274 241.122L58.1903 245H59.7883L56.0756 240.312L59.5326 236.818H57.9772L54.3976 240.462H54.2485V234.091H52.9914V245Z" fill="#B0BAC9"/>
<path d="M32.0614 189.091H30.7617V197.678H30.6552L24.6893 189.091H23.4109V200H24.7319V191.435H24.8384L30.783 200H32.0614V189.091ZM34.5131 200H41.3952V198.828H36.3241V198.743L38.7744 196.122C40.6494 194.114 41.2034 193.176 41.2034 191.967C41.2034 190.284 39.8398 188.942 37.9221 188.942C36.0099 188.942 34.5557 190.241 34.5557 192.159H35.8128C35.8128 190.918 36.6171 190.092 37.8795 190.092C39.0621 190.092 39.9676 190.817 39.9676 191.967C39.9676 192.974 39.3763 193.72 38.1139 195.099L34.5131 199.041V200ZM47.1533 200.149C49.561 200.149 50.9459 198.109 50.9459 194.545C50.9459 191.009 49.5397 188.942 47.1533 188.942C44.767 188.942 43.3607 191.009 43.3607 194.545C43.3607 198.109 44.7456 200.149 47.1533 200.149ZM47.1533 198.977C45.566 198.977 44.6391 197.385 44.6391 194.545C44.6391 191.712 45.5766 190.092 47.1533 190.092C48.73 190.092 49.6675 191.712 49.6675 194.545C49.6675 197.385 48.7407 198.977 47.1533 198.977ZM52.9914 200H54.2485V196.937L55.1274 196.122L58.1903 200H59.7883L56.0756 195.312L59.5326 191.818H57.9772L54.3976 195.462H54.2485V189.091H52.9914V200Z" fill="#B0BAC9"/>
<path d="M32.3105 144.091H31.0107V152.678H30.9042L24.9383 144.091H23.6599V155H24.9809V146.435H25.0874L31.032 155H32.3105V144.091ZM34.7621 155H41.6442V153.828H36.5732V153.743L39.0234 151.122C40.8984 149.114 41.4524 148.176 41.4524 146.967C41.4524 145.284 40.0888 143.942 38.1712 143.942C36.2589 143.942 34.8047 145.241 34.8047 147.159H36.0618C36.0618 145.918 36.8661 145.092 38.1286 145.092C39.3111 145.092 40.2166 145.817 40.2166 146.967C40.2166 147.974 39.6254 148.72 38.3629 150.099L34.7621 154.041V155ZM47.2532 155.149C49.3306 155.149 50.854 153.615 50.854 151.527C50.854 149.412 49.3839 147.862 47.381 147.862C46.646 147.862 45.9322 148.123 45.4847 148.48H45.4208L45.8043 145.263H50.364V144.091H44.6964L44.0359 149.46L45.2717 149.609C45.7244 149.284 46.4968 149.05 47.168 149.055C48.5582 149.066 49.5756 150.121 49.5756 151.548C49.5756 152.949 48.5955 153.977 47.2532 153.977C46.1346 153.977 45.245 153.258 45.1438 152.273H43.8654C43.9453 153.935 45.3782 155.149 47.2532 155.149ZM52.9914 155H54.2485V151.937L55.1274 151.122L58.1903 155H59.7883L56.0756 150.312L59.5326 146.818H57.9772L54.3976 150.462H54.2485V144.091H52.9914V155Z" fill="#B0BAC9"/>
<path d="M31.5927 99.0909H30.293V107.678H30.1864L24.2205 99.0909H22.9421V110H24.2631V101.435H24.3697L30.3143 110H31.5927V99.0909ZM37.7304 110.149C39.8451 110.149 41.4165 108.823 41.4165 107.038C41.4165 105.653 40.5961 104.647 39.2219 104.418V104.332C40.3245 103.997 41.0116 103.091 41.0116 101.861C41.0116 100.316 39.7918 98.9418 37.773 98.9418C35.8873 98.9418 34.3213 100.103 34.2574 101.818H35.5358C35.5837 100.732 36.6171 100.092 37.7517 100.092C38.9555 100.092 39.7332 100.822 39.7332 101.925C39.7332 103.075 38.833 103.821 37.5386 103.821H36.665V104.993H37.5386C39.1952 104.993 40.1167 105.835 40.1167 107.038C40.1167 108.194 39.11 108.977 37.7091 108.977C36.4466 108.977 35.4452 108.327 35.3653 107.273H34.023C34.1029 108.988 35.6157 110.149 37.7304 110.149ZM47.1533 110.149C49.561 110.149 50.9459 108.109 50.9459 104.545C50.9459 101.009 49.5397 98.9418 47.1533 98.9418C44.767 98.9418 43.3607 101.009 43.3607 104.545C43.3607 108.109 44.7456 110.149 47.1533 110.149ZM47.1533 108.977C45.566 108.977 44.6391 107.385 44.6391 104.545C44.6391 101.712 45.5766 100.092 47.1533 100.092C48.73 100.092 49.6675 101.712 49.6675 104.545C49.6675 107.385 48.7407 108.977 47.1533 108.977ZM52.9914 110H54.2485V106.937L55.1274 106.122L58.1903 110H59.7883L56.0756 105.312L59.5326 101.818H57.9772L54.3976 105.462H54.2485V99.0909H52.9914V110Z" fill="#B0BAC9"/>
<path d="M114.464 388.091V399H115.699V390.712H115.806L119.215 399H120.408L123.817 390.712H123.924V399H125.16V388.091H123.583L119.876 397.146H119.748L116.04 388.091H114.464ZM130.382 399.192C131.81 399.192 132.556 398.425 132.811 397.892H132.875V399H134.132V393.609C134.132 391.01 132.151 390.712 131.107 390.712C129.871 390.712 128.465 391.138 127.826 392.629L129.019 393.055C129.296 392.459 129.951 391.82 131.15 391.82C132.305 391.82 132.875 392.432 132.875 393.482V393.524C132.875 394.131 132.257 394.078 130.766 394.27C129.248 394.467 127.591 394.803 127.591 396.678C127.591 398.276 128.827 399.192 130.382 399.192ZM130.574 398.062C129.573 398.062 128.848 397.615 128.848 396.741C128.848 395.783 129.722 395.484 130.702 395.357C131.235 395.293 132.662 395.143 132.875 394.888V396.038C132.875 397.061 132.066 398.062 130.574 398.062ZM136.427 399H137.684V393.822C137.684 392.714 138.558 391.905 139.751 391.905C140.086 391.905 140.433 391.969 140.518 391.99V390.712C140.374 390.701 140.044 390.69 139.857 390.69C138.877 390.69 138.025 391.244 137.727 392.054H137.641V390.818H136.427V399ZM128.478 410.091H127.157L124.43 411.902V413.244L127.093 411.476H127.157V421H128.478V410.091Z" fill="#B0BAC9"/>
<path d="M178.964 388.091V399H180.199V390.712H180.306L183.715 399H184.908L188.317 390.712H188.424V399H189.66V388.091H188.083L184.376 397.146H184.248L180.54 388.091H178.964ZM194.882 399.192C196.31 399.192 197.056 398.425 197.311 397.892H197.375V399H198.632V393.609C198.632 391.01 196.651 390.712 195.607 390.712C194.371 390.712 192.965 391.138 192.326 392.629L193.519 393.055C193.796 392.459 194.451 391.82 195.65 391.82C196.805 391.82 197.375 392.432 197.375 393.482V393.524C197.375 394.131 196.757 394.078 195.266 394.27C193.748 394.467 192.091 394.803 192.091 396.678C192.091 398.276 193.327 399.192 194.882 399.192ZM195.074 398.062C194.073 398.062 193.348 397.615 193.348 396.741C193.348 395.783 194.222 395.484 195.202 395.357C195.735 395.293 197.162 395.143 197.375 394.888V396.038C197.375 397.061 196.566 398.062 195.074 398.062ZM200.927 399H202.184V393.822C202.184 392.714 203.058 391.905 204.251 391.905C204.586 391.905 204.933 391.969 205.018 391.99V390.712C204.874 390.701 204.544 390.69 204.357 390.69C203.377 390.69 202.525 391.244 202.227 392.054H202.141V390.818H200.927V399ZM191.502 421.149C193.681 421.149 195.199 419.876 195.209 418.102C195.199 416.723 194.277 415.551 193.1 415.332V415.268C194.123 415.002 194.794 414.001 194.805 412.839C194.794 411.178 193.398 409.942 191.502 409.942C189.584 409.942 188.189 411.178 188.199 412.839C188.189 414.001 188.86 415.002 189.904 415.268V415.332C188.705 415.551 187.784 416.723 187.795 418.102C187.784 419.876 189.302 421.149 191.502 421.149ZM191.502 419.977C190.005 419.977 189.084 419.21 189.094 418.038C189.084 416.808 190.101 415.929 191.502 415.929C192.882 415.929 193.899 416.808 193.91 418.038C193.899 419.21 192.977 419.977 191.502 419.977ZM191.502 414.8C190.309 414.8 189.467 414.054 189.478 412.925C189.467 411.817 190.277 411.092 191.502 411.092C192.706 411.092 193.515 411.817 193.526 412.925C193.515 414.054 192.674 414.8 191.502 414.8Z" fill="#B0BAC9"/>
<path d="M250.964 388.091V399H252.199V390.712H252.306L255.715 399H256.908L260.317 390.712H260.424V399H261.66V388.091H260.083L256.376 397.146H256.248L252.54 388.091H250.964ZM266.882 399.192C268.31 399.192 269.056 398.425 269.311 397.892H269.375V399H270.632V393.609C270.632 391.01 268.651 390.712 267.607 390.712C266.371 390.712 264.965 391.138 264.326 392.629L265.519 393.055C265.796 392.459 266.451 391.82 267.65 391.82C268.805 391.82 269.375 392.432 269.375 393.482V393.524C269.375 394.131 268.757 394.078 267.266 394.27C265.748 394.467 264.091 394.803 264.091 396.678C264.091 398.276 265.327 399.192 266.882 399.192ZM267.074 398.062C266.073 398.062 265.348 397.615 265.348 396.741C265.348 395.783 266.222 395.484 267.202 395.357C267.735 395.293 269.162 395.143 269.375 394.888V396.038C269.375 397.061 268.566 398.062 267.074 398.062ZM272.927 399H274.184V393.822C274.184 392.714 275.058 391.905 276.251 391.905C276.586 391.905 276.933 391.969 277.018 391.99V390.712C276.874 390.701 276.544 390.69 276.357 390.69C275.377 390.69 274.525 391.244 274.227 392.054H274.141V390.818H272.927V399ZM260.415 410.091H259.094L256.367 411.902V413.244L259.03 411.476H259.094V421H260.415V410.091ZM266.962 421.149C269.039 421.149 270.563 419.615 270.563 417.527C270.563 415.412 269.092 413.862 267.09 413.862C266.354 413.862 265.641 414.123 265.193 414.48H265.129L265.513 411.263H270.072V410.091H264.405L263.744 415.46L264.98 415.609C265.433 415.284 266.205 415.05 266.876 415.055C268.267 415.066 269.284 416.121 269.284 417.548C269.284 418.949 268.304 419.977 266.962 419.977C265.843 419.977 264.954 419.258 264.852 418.273H263.574C263.654 419.935 265.087 421.149 266.962 421.149Z" fill="#B0BAC9"/>
<path d="M324.964 388.091V399H326.199V390.712H326.306L329.715 399H330.908L334.317 390.712H334.424V399H335.66V388.091H334.083L330.376 397.146H330.248L326.54 388.091H324.964ZM340.882 399.192C342.31 399.192 343.056 398.425 343.311 397.892H343.375V399H344.632V393.609C344.632 391.01 342.651 390.712 341.607 390.712C340.371 390.712 338.965 391.138 338.326 392.629L339.519 393.055C339.796 392.459 340.451 391.82 341.65 391.82C342.805 391.82 343.375 392.432 343.375 393.482V393.524C343.375 394.131 342.757 394.078 341.266 394.27C339.748 394.467 338.091 394.803 338.091 396.678C338.091 398.276 339.327 399.192 340.882 399.192ZM341.074 398.062C340.073 398.062 339.348 397.615 339.348 396.741C339.348 395.783 340.222 395.484 341.202 395.357C341.735 395.293 343.162 395.143 343.375 394.888V396.038C343.375 397.061 342.566 398.062 341.074 398.062ZM346.927 399H348.184V393.822C348.184 392.714 349.058 391.905 350.251 391.905C350.586 391.905 350.933 391.969 351.018 391.99V390.712C350.874 390.701 350.544 390.69 350.357 390.69C349.377 390.69 348.525 391.244 348.227 392.054H348.141V390.818H346.927V399ZM329.547 421H336.429V419.828H331.358V419.743L333.809 417.122C335.684 415.114 336.238 414.176 336.238 412.967C336.238 411.284 334.874 409.942 332.956 409.942C331.044 409.942 329.59 411.241 329.59 413.159H330.847C330.847 411.918 331.651 411.092 332.914 411.092C334.096 411.092 335.002 411.817 335.002 412.967C335.002 413.974 334.411 414.72 333.148 416.099L329.547 420.041V421ZM338.629 421H345.511V419.828H340.44V419.743L342.891 417.122C344.766 415.114 345.32 414.176 345.32 412.967C345.32 411.284 343.956 409.942 342.038 409.942C340.126 409.942 338.672 411.241 338.672 413.159H339.929C339.929 411.918 340.733 411.092 341.996 411.092C343.178 411.092 344.084 411.817 344.084 412.967C344.084 413.974 343.493 414.72 342.23 416.099L338.629 420.041V421Z" fill="#B0BAC9"/>
<path d="M403.464 388.091V399H404.699V390.712H404.806L408.215 399H409.408L412.817 390.712H412.924V399H414.16V388.091H412.583L408.876 397.146H408.748L405.04 388.091H403.464ZM419.382 399.192C420.81 399.192 421.556 398.425 421.811 397.892H421.875V399H423.132V393.609C423.132 391.01 421.151 390.712 420.107 390.712C418.871 390.712 417.465 391.138 416.826 392.629L418.019 393.055C418.296 392.459 418.951 391.82 420.15 391.82C421.305 391.82 421.875 392.432 421.875 393.482V393.524C421.875 394.131 421.257 394.078 419.766 394.27C418.248 394.467 416.591 394.803 416.591 396.678C416.591 398.276 417.827 399.192 419.382 399.192ZM419.574 398.062C418.573 398.062 417.848 397.615 417.848 396.741C417.848 395.783 418.722 395.484 419.702 395.357C420.235 395.293 421.662 395.143 421.875 394.888V396.038C421.875 397.061 421.066 398.062 419.574 398.062ZM425.427 399H426.684V393.822C426.684 392.714 427.558 391.905 428.751 391.905C429.086 391.905 429.433 391.969 429.518 391.99V390.712C429.374 390.701 429.044 390.69 428.857 390.69C427.877 390.69 427.025 391.244 426.727 392.054H426.641V390.818H425.427V399ZM407.908 421H414.79V419.828H409.719V419.743L412.169 417.122C414.044 415.114 414.598 414.176 414.598 412.967C414.598 411.284 413.235 409.942 411.317 409.942C409.405 409.942 407.951 411.241 407.951 413.159H409.208C409.208 411.918 410.012 411.092 411.275 411.092C412.457 411.092 413.363 411.817 413.363 412.967C413.363 413.974 412.771 414.72 411.509 416.099L407.908 420.041V421ZM420.463 409.92C418.247 409.899 416.82 411.561 416.82 413.585C416.82 415.695 418.375 417.207 420.25 417.207C421.379 417.207 422.338 416.653 422.935 415.759H423.02C423.02 418.443 421.976 419.977 420.293 419.977C419.142 419.977 418.439 419.253 418.205 418.251H416.905C417.161 419.977 418.46 421.149 420.293 421.149C422.743 421.149 424.256 418.976 424.256 415.098C424.256 411.071 422.253 409.942 420.463 409.92ZM420.463 411.092C421.827 411.092 422.828 412.264 422.828 413.564C422.828 414.864 421.763 416.036 420.42 416.036C419.078 416.036 418.098 414.949 418.098 413.585C418.098 412.2 419.121 411.092 420.463 411.092Z" fill="#B0BAC9"/>
<path d="M477.339 399L478.437 395.911H482.847L483.944 399H485.329L481.324 388.091H479.96L475.954 399H477.339ZM478.852 394.739L480.599 389.817H480.684L482.432 394.739H478.852ZM486.858 402.068H488.115V397.743H488.222C488.499 398.19 489.031 399.17 490.608 399.17C492.654 399.17 494.081 397.53 494.081 394.93C494.081 392.352 492.654 390.712 490.587 390.712C488.989 390.712 488.499 391.692 488.222 392.118H488.073V390.818H486.858V402.068ZM488.094 394.909C488.094 393.077 488.904 391.841 490.438 391.841C492.036 391.841 492.824 393.183 492.824 394.909C492.824 396.656 492.014 398.041 490.438 398.041C488.925 398.041 488.094 396.763 488.094 394.909ZM495.999 399H497.256V393.822C497.256 392.714 498.129 391.905 499.323 391.905C499.658 391.905 500.004 391.969 500.09 391.99V390.712C499.946 390.701 499.616 390.69 499.429 390.69C498.449 390.69 497.597 391.244 497.298 392.054H497.213V390.818H495.999V399ZM487.975 421.149C490.053 421.149 491.576 419.615 491.576 417.527C491.576 415.412 490.106 413.862 488.103 413.862C487.368 413.862 486.654 414.123 486.207 414.48H486.143L486.527 411.263H491.086V410.091H485.419L484.758 415.46L485.994 415.609C486.447 415.284 487.219 415.05 487.89 415.055C489.28 415.066 490.298 416.121 490.298 417.548C490.298 418.949 489.318 419.977 487.975 419.977C486.857 419.977 485.967 419.258 485.866 418.273H484.588C484.667 419.935 486.1 421.149 487.975 421.149Z" fill="#B0BAC9"/>
<path d="M549.339 399L550.437 395.911H554.847L555.944 399H557.329L553.324 388.091H551.96L547.954 399H549.339ZM550.852 394.739L552.599 389.817H552.684L554.432 394.739H550.852ZM558.858 402.068H560.115V397.743H560.222C560.499 398.19 561.031 399.17 562.608 399.17C564.654 399.17 566.081 397.53 566.081 394.93C566.081 392.352 564.654 390.712 562.587 390.712C560.989 390.712 560.499 391.692 560.222 392.118H560.073V390.818H558.858V402.068ZM560.094 394.909C560.094 393.077 560.904 391.841 562.438 391.841C564.036 391.841 564.824 393.183 564.824 394.909C564.824 396.656 564.014 398.041 562.438 398.041C560.925 398.041 560.094 396.763 560.094 394.909ZM567.999 399H569.256V393.822C569.256 392.714 570.129 391.905 571.323 391.905C571.658 391.905 572.004 391.969 572.09 391.99V390.712C571.946 390.701 571.616 390.69 571.429 390.69C570.449 390.69 569.597 391.244 569.298 392.054H569.213V390.818H567.999V399ZM556.937 410.091H555.616L552.889 411.902V413.244L555.552 411.476H555.616V421H556.937V410.091ZM560.075 421H566.957V419.828H561.886V419.743L564.336 417.122C566.211 415.114 566.765 414.176 566.765 412.967C566.765 411.284 565.401 409.942 563.484 409.942C561.571 409.942 560.117 411.241 560.117 413.159H561.374C561.374 411.918 562.179 411.092 563.441 411.092C564.624 411.092 565.529 411.817 565.529 412.967C565.529 413.974 564.938 414.72 563.675 416.099L560.075 420.041V421Z" fill="#B0BAC9"/>
<path d="M621.339 399L622.437 395.911H626.847L627.944 399H629.329L625.324 388.091H623.96L619.954 399H621.339ZM622.852 394.739L624.599 389.817H624.684L626.432 394.739H622.852ZM630.858 402.068H632.115V397.743H632.222C632.499 398.19 633.031 399.17 634.608 399.17C636.654 399.17 638.081 397.53 638.081 394.93C638.081 392.352 636.654 390.712 634.587 390.712C632.989 390.712 632.499 391.692 632.222 392.118H632.073V390.818H630.858V402.068ZM632.094 394.909C632.094 393.077 632.904 391.841 634.438 391.841C636.036 391.841 636.824 393.183 636.824 394.909C636.824 396.656 636.014 398.041 634.438 398.041C632.925 398.041 632.094 396.763 632.094 394.909ZM639.999 399H641.256V393.822C641.256 392.714 642.129 391.905 643.323 391.905C643.658 391.905 644.004 391.969 644.09 391.99V390.712C643.946 390.701 643.616 390.69 643.429 390.69C642.449 390.69 641.597 391.244 641.298 392.054H641.213V390.818H639.999V399ZM628.798 410.091H627.477L624.75 411.902V413.244L627.413 411.476H627.477V421H628.798V410.091ZM635.408 409.92C633.193 409.899 631.765 411.561 631.765 413.585C631.765 415.695 633.32 417.207 635.195 417.207C636.325 417.207 637.283 416.653 637.88 415.759H637.965C637.965 418.443 636.921 419.977 635.238 419.977C634.087 419.977 633.384 419.253 633.15 418.251H631.85C632.106 419.977 633.406 421.149 635.238 421.149C637.688 421.149 639.201 418.976 639.201 415.098C639.201 411.071 637.198 409.942 635.408 409.92ZM635.408 411.092C636.772 411.092 637.773 412.264 637.773 413.564C637.773 414.864 636.708 416.036 635.366 416.036C634.023 416.036 633.043 414.949 633.043 413.585C633.043 412.2 634.066 411.092 635.408 411.092Z" fill="#B0BAC9"/>
<path d="M696.839 399L697.937 395.911H702.347L703.444 399H704.829L700.824 388.091H699.46L695.454 399H696.839ZM698.352 394.739L700.099 389.817H700.184L701.932 394.739H698.352ZM706.358 402.068H707.615V397.743H707.722C707.999 398.19 708.531 399.17 710.108 399.17C712.154 399.17 713.581 397.53 713.581 394.93C713.581 392.352 712.154 390.712 710.087 390.712C708.489 390.712 707.999 391.692 707.722 392.118H707.573V390.818H706.358V402.068ZM707.594 394.909C707.594 393.077 708.404 391.841 709.938 391.841C711.536 391.841 712.324 393.183 712.324 394.909C712.324 396.656 711.514 398.041 709.938 398.041C708.425 398.041 707.594 396.763 707.594 394.909ZM715.499 399H716.756V393.822C716.756 392.714 717.629 391.905 718.823 391.905C719.158 391.905 719.504 391.969 719.59 391.99V390.712C719.446 390.701 719.116 390.69 718.929 390.69C717.949 390.69 717.097 391.244 716.798 392.054H716.713V390.818H715.499V399ZM699.408 421H706.29V419.828H701.219V419.743L703.669 417.122C705.544 415.114 706.098 414.176 706.098 412.967C706.098 411.284 704.735 409.942 702.817 409.942C700.905 409.942 699.451 411.241 699.451 413.159H700.708C700.708 411.918 701.512 411.092 702.775 411.092C703.957 411.092 704.863 411.817 704.863 412.967C704.863 413.974 704.271 414.72 703.009 416.099L699.408 420.041V421ZM712.112 421.149C714.318 421.176 715.756 419.514 715.756 417.484C715.756 415.375 714.195 413.862 712.325 413.862C711.201 413.862 710.237 414.411 709.641 415.311H709.555C709.561 412.632 710.594 411.092 712.283 411.092C713.433 411.092 714.126 411.817 714.371 412.818H715.67C715.404 411.103 714.115 409.92 712.283 409.92C709.827 409.92 708.32 412.094 708.32 415.972C708.32 420.004 710.322 421.128 712.112 421.149ZM712.112 419.977C710.743 419.977 709.742 418.811 709.747 417.506C709.753 416.201 710.802 415.034 712.155 415.034C713.492 415.034 714.477 416.131 714.477 417.484C714.477 418.869 713.449 419.977 712.112 419.977Z" fill="#B0BAC9"/>
<path d="M767.718 388.091V399H768.954V390.712H769.061L772.47 399H773.663L777.072 390.712H777.179V399H778.415V388.091H776.838L773.13 397.146H773.003L769.295 388.091H767.718ZM783.637 399.192C785.065 399.192 785.811 398.425 786.066 397.892H786.13V399H787.387V393.609C787.387 391.01 785.406 390.712 784.362 390.712C783.126 390.712 781.72 391.138 781.081 392.629L782.274 393.055C782.551 392.459 783.206 391.82 784.404 391.82C785.56 391.82 786.13 392.432 786.13 393.482V393.524C786.13 394.131 785.512 394.078 784.021 394.27C782.503 394.467 780.846 394.803 780.846 396.678C780.846 398.276 782.082 399.192 783.637 399.192ZM783.829 398.062C782.828 398.062 782.103 397.615 782.103 396.741C782.103 395.783 782.977 395.484 783.957 395.357C784.49 395.293 785.917 395.143 786.13 394.888V396.038C786.13 397.061 785.321 398.062 783.829 398.062ZM790.199 402.047C791.333 402.047 792.137 401.445 792.606 400.193L796.09 390.839L794.716 390.818L792.457 397.338H792.372L790.113 390.818H788.75L791.775 399.043L791.541 399.682C791.093 400.907 790.518 401.024 789.602 400.79L789.282 401.898C789.41 401.962 789.772 402.047 790.199 402.047ZM778.088 421H784.97V419.828H779.899V419.743L782.35 417.122C784.225 415.114 784.779 414.176 784.779 412.967C784.779 411.284 783.415 409.942 781.497 409.942C779.585 409.942 778.131 411.241 778.131 413.159H779.388C779.388 411.918 780.192 411.092 781.455 411.092C782.637 411.092 783.543 411.817 783.543 412.967C783.543 413.974 782.952 414.72 781.689 416.099L778.088 420.041V421Z" fill="#B0BAC9"/>
<path d="M839.718 388.091V399H840.954V390.712H841.061L844.47 399H845.663L849.072 390.712H849.179V399H850.415V388.091H848.838L845.13 397.146H845.003L841.295 388.091H839.718ZM855.637 399.192C857.065 399.192 857.811 398.425 858.066 397.892H858.13V399H859.387V393.609C859.387 391.01 857.406 390.712 856.362 390.712C855.126 390.712 853.72 391.138 853.081 392.629L854.274 393.055C854.551 392.459 855.206 391.82 856.404 391.82C857.56 391.82 858.13 392.432 858.13 393.482V393.524C858.13 394.131 857.512 394.078 856.021 394.27C854.503 394.467 852.846 394.803 852.846 396.678C852.846 398.276 854.082 399.192 855.637 399.192ZM855.829 398.062C854.828 398.062 854.103 397.615 854.103 396.741C854.103 395.783 854.977 395.484 855.957 395.357C856.49 395.293 857.917 395.143 858.13 394.888V396.038C858.13 397.061 857.321 398.062 855.829 398.062ZM862.199 402.047C863.333 402.047 864.137 401.445 864.606 400.193L868.09 390.839L866.716 390.818L864.457 397.338H864.372L862.113 390.818H860.75L863.775 399.043L863.541 399.682C863.093 400.907 862.518 401.024 861.602 400.79L861.282 401.898C861.41 401.962 861.772 402.047 862.199 402.047ZM853.422 409.92C851.206 409.899 849.779 411.561 849.779 413.585C849.779 415.695 851.334 417.207 853.209 417.207C854.338 417.207 855.297 416.653 855.894 415.759H855.979C855.979 418.443 854.935 419.977 853.252 419.977C852.101 419.977 851.398 419.253 851.164 418.251H849.864C850.12 419.977 851.419 421.149 853.252 421.149C855.702 421.149 857.215 418.976 857.215 415.098C857.215 411.071 855.212 409.942 853.422 409.92ZM853.422 411.092C854.786 411.092 855.787 412.264 855.787 413.564C855.787 414.864 854.722 416.036 853.379 416.036C852.037 416.036 851.057 414.949 851.057 413.585C851.057 412.2 852.08 411.092 853.422 411.092Z" fill="#B0BAC9"/>
<path d="M914.218 388.091V399H915.454V390.712H915.561L918.97 399H920.163L923.572 390.712H923.679V399H924.915V388.091H923.338L919.63 397.146H919.503L915.795 388.091H914.218ZM930.137 399.192C931.565 399.192 932.311 398.425 932.566 397.892H932.63V399H933.887V393.609C933.887 391.01 931.906 390.712 930.862 390.712C929.626 390.712 928.22 391.138 927.581 392.629L928.774 393.055C929.051 392.459 929.706 391.82 930.904 391.82C932.06 391.82 932.63 392.432 932.63 393.482V393.524C932.63 394.131 932.012 394.078 930.521 394.27C929.003 394.467 927.346 394.803 927.346 396.678C927.346 398.276 928.582 399.192 930.137 399.192ZM930.329 398.062C929.328 398.062 928.603 397.615 928.603 396.741C928.603 395.783 929.477 395.484 930.457 395.357C930.99 395.293 932.417 395.143 932.63 394.888V396.038C932.63 397.061 931.821 398.062 930.329 398.062ZM936.699 402.047C937.833 402.047 938.637 401.445 939.106 400.193L942.59 390.839L941.216 390.818L938.957 397.338H938.872L936.613 390.818H935.25L938.275 399.043L938.041 399.682C937.593 400.907 937.018 401.024 936.102 400.79L935.782 401.898C935.91 401.962 936.272 402.047 936.699 402.047ZM924.798 410.091H923.477L920.75 411.902V413.244L923.413 411.476H923.477V421H924.798V410.091ZM931.558 421.149C933.763 421.176 935.201 419.514 935.201 417.484C935.201 415.375 933.64 413.862 931.771 413.862C930.647 413.862 929.683 414.411 929.086 415.311H929.001C929.006 412.632 930.039 411.092 931.728 411.092C932.879 411.092 933.571 411.817 933.816 412.818H935.116C934.849 411.103 933.56 409.92 931.728 409.92C929.272 409.92 927.765 412.094 927.765 415.972C927.765 420.004 929.768 421.128 931.558 421.149ZM931.558 419.977C930.189 419.977 929.187 418.811 929.193 417.506C929.198 416.201 930.247 415.034 931.6 415.034C932.937 415.034 933.923 416.131 933.923 417.484C933.923 418.869 932.895 419.977 931.558 419.977Z" fill="#B0BAC9"/>
<path d="M993.218 388.091V399H994.454V390.712H994.561L997.97 399H999.163L1002.57 390.712H1002.68V399H1003.91V388.091H1002.34L998.63 397.146H998.503L994.795 388.091H993.218ZM1009.14 399.192C1010.56 399.192 1011.31 398.425 1011.57 397.892H1011.63V399H1012.89V393.609C1012.89 391.01 1010.91 390.712 1009.86 390.712C1008.63 390.712 1007.22 391.138 1006.58 392.629L1007.77 393.055C1008.05 392.459 1008.71 391.82 1009.9 391.82C1011.06 391.82 1011.63 392.432 1011.63 393.482V393.524C1011.63 394.131 1011.01 394.078 1009.52 394.27C1008 394.467 1006.35 394.803 1006.35 396.678C1006.35 398.276 1007.58 399.192 1009.14 399.192ZM1009.33 398.062C1008.33 398.062 1007.6 397.615 1007.6 396.741C1007.6 395.783 1008.48 395.484 1009.46 395.357C1009.99 395.293 1011.42 395.143 1011.63 394.888V396.038C1011.63 397.061 1010.82 398.062 1009.33 398.062ZM1015.7 402.047C1016.83 402.047 1017.64 401.445 1018.11 400.193L1021.59 390.839L1020.22 390.818L1017.96 397.338H1017.87L1015.61 390.818H1014.25L1017.28 399.043L1017.04 399.682C1016.59 400.907 1016.02 401.024 1015.1 400.79L1014.78 401.898C1014.91 401.962 1015.27 402.047 1015.7 402.047ZM998.813 421H1005.69V419.828H1000.62V419.743L1003.07 417.122C1004.95 415.114 1005.5 414.176 1005.5 412.967C1005.5 411.284 1004.14 409.942 1002.22 409.942C1000.31 409.942 998.855 411.241 998.855 413.159H1000.11C1000.11 411.918 1000.92 411.092 1002.18 411.092C1003.36 411.092 1004.27 411.817 1004.27 412.967C1004.27 413.974 1003.68 414.72 1002.41 416.099L998.813 420.041V421ZM1011.58 421.149C1013.7 421.149 1015.27 419.823 1015.27 418.038C1015.27 416.653 1014.45 415.647 1013.07 415.418V415.332C1014.18 414.997 1014.86 414.091 1014.86 412.861C1014.86 411.316 1013.64 409.942 1011.62 409.942C1009.74 409.942 1008.17 411.103 1008.11 412.818H1009.39C1009.43 411.732 1010.47 411.092 1011.6 411.092C1012.81 411.092 1013.58 411.822 1013.58 412.925C1013.58 414.075 1012.68 414.821 1011.39 414.821H1010.52V415.993H1011.39C1013.05 415.993 1013.97 416.835 1013.97 418.038C1013.97 419.194 1012.96 419.977 1011.56 419.977C1010.3 419.977 1009.3 419.327 1009.22 418.273H1007.87C1007.95 419.988 1009.47 421.149 1011.58 421.149Z" fill="#B0BAC9"/>
<path d="M1073.72 388.091V399H1074.95V390.712H1075.06L1078.47 399H1079.66L1083.07 390.712H1083.18V399H1084.41V388.091H1082.84L1079.13 397.146H1079L1075.3 388.091H1073.72ZM1089.64 399.192C1091.06 399.192 1091.81 398.425 1092.07 397.892H1092.13V399H1093.39V393.609C1093.39 391.01 1091.41 390.712 1090.36 390.712C1089.13 390.712 1087.72 391.138 1087.08 392.629L1088.27 393.055C1088.55 392.459 1089.21 391.82 1090.4 391.82C1091.56 391.82 1092.13 392.432 1092.13 393.482V393.524C1092.13 394.131 1091.51 394.078 1090.02 394.27C1088.5 394.467 1086.85 394.803 1086.85 396.678C1086.85 398.276 1088.08 399.192 1089.64 399.192ZM1089.83 398.062C1088.83 398.062 1088.1 397.615 1088.1 396.741C1088.1 395.783 1088.98 395.484 1089.96 395.357C1090.49 395.293 1091.92 395.143 1092.13 394.888V396.038C1092.13 397.061 1091.32 398.062 1089.83 398.062ZM1096.2 402.047C1097.33 402.047 1098.14 401.445 1098.61 400.193L1102.09 390.839L1100.72 390.818L1098.46 397.338H1098.37L1096.11 390.818H1094.75L1097.78 399.043L1097.54 399.682C1097.09 400.907 1096.52 401.024 1095.6 400.79L1095.28 401.898C1095.41 401.962 1095.77 402.047 1096.2 402.047ZM1082.85 421.149C1084.97 421.149 1086.54 419.823 1086.54 418.038C1086.54 416.653 1085.72 415.647 1084.34 415.418V415.332C1085.45 414.997 1086.13 414.091 1086.13 412.861C1086.13 411.316 1084.91 409.942 1082.9 409.942C1081.01 409.942 1079.44 411.103 1079.38 412.818H1080.66C1080.71 411.732 1081.74 411.092 1082.87 411.092C1084.08 411.092 1084.86 411.822 1084.86 412.925C1084.86 414.075 1083.96 414.821 1082.66 414.821H1081.79V415.993H1082.66C1084.32 415.993 1085.24 416.835 1085.24 418.038C1085.24 419.194 1084.23 419.977 1082.83 419.977C1081.57 419.977 1080.57 419.327 1080.49 418.273H1079.15C1079.22 419.988 1080.74 421.149 1082.85 421.149ZM1092.28 421.149C1094.68 421.149 1096.07 419.109 1096.07 415.545C1096.07 412.009 1094.66 409.942 1092.28 409.942C1089.89 409.942 1088.48 412.009 1088.48 415.545C1088.48 419.109 1089.87 421.149 1092.28 421.149ZM1092.28 419.977C1090.69 419.977 1089.76 418.385 1089.76 415.545C1089.76 412.712 1090.7 411.092 1092.28 411.092C1093.85 411.092 1094.79 412.712 1094.79 415.545C1094.79 418.385 1093.86 419.977 1092.28 419.977Z" fill="#B0BAC9"/>
<path fill-rule="evenodd" clip-rule="evenodd" d="M81.3281 301.5L141.17 269L203.04 288.5L264.404 230.5L324.246 158.5L386.116 174.5L445.451 224L507.321 255L568.178 222L627.005 209.5L689.383 151L750.239 196.5L812.109 269L871.951 292L934.329 226.25L993.664 130.5L1053.51 174.5L1115.38 181.5V375.016H81.3281" fill="url(#paint0_linear)" fill-opacity="0.1"/>
<path d="M81.3281 301.5L141.17 269L203.04 288.5L264.404 230.5L324.246 158.5L386.116 174.5L445.451 224L507.321 255L568.178 222L627.005 209.5L689.383 151L750.239 196.5L812.109 269L871.951 292L934.329 226.25L993.664 130.5L1053.51 174.5L1115.38 181.5" stroke="#FDC46B" stroke-width="2"/>
<path d="M86.0427 301C86.0427 302.657 84.6996 304 83.0427 304C81.3859 304 80.0427 302.657 80.0427 301C80.0427 299.343 81.3859 298 83.0427 298C84.6996 298 86.0427 299.343 86.0427 301Z" fill="white" stroke="#FF6B35" stroke-width="2"/>
<path d="M145.675 270C145.675 271.657 144.332 273 142.675 273C141.018 273 139.675 271.657 139.675 270C139.675 268.343 141.018 267 142.675 267C144.332 267 145.675 268.343 145.675 270Z" fill="white" stroke="#FF6B35" stroke-width="2"/>
<path d="M207.328 288C207.328 289.657 205.985 291 204.328 291C202.671 291 201.328 289.657 201.328 288C201.328 286.343 202.671 285 204.328 285C205.985 285 207.328 286.343 207.328 288Z" fill="white" stroke="#FF6B35" stroke-width="2"/>
<path d="M328.613 159C328.613 160.657 327.27 162 325.613 162C323.956 162 322.613 160.657 322.613 159C322.613 157.343 323.956 156 325.613 156C327.27 156 328.613 157.343 328.613 159Z" fill="white" stroke="#FF6B35" stroke-width="2"/>
<path d="M266.96 232C266.96 233.657 265.617 235 263.96 235C262.303 235 260.96 233.657 260.96 232C260.96 230.343 262.303 229 263.96 229C265.617 229 266.96 230.343 266.96 232Z" fill="white" stroke="#FF6B35" stroke-width="2"/>
<path d="M389.256 174C389.256 175.657 387.913 177 386.256 177C384.599 177 383.256 175.657 383.256 174C383.256 172.343 384.599 171 386.256 171C387.913 171 389.256 172.343 389.256 174Z" fill="white" stroke="#FF6B35" stroke-width="2"/>
<path d="M448.888 224C448.888 225.657 447.545 227 445.888 227C444.231 227 442.888 225.657 442.888 224C442.888 222.343 444.231 221 445.888 221C447.545 221 448.888 222.343 448.888 224Z" fill="white" stroke="#FF6B35" stroke-width="2"/>
<path d="M511.552 255C511.552 256.657 510.209 258 508.552 258C506.895 258 505.552 256.657 505.552 255C505.552 253.343 506.895 252 508.552 252C510.209 252 511.552 253.343 511.552 255Z" fill="white" stroke="#FF6B35" stroke-width="2"/>
<path d="M571.184 222C571.184 223.657 569.841 225 568.184 225C566.527 225 565.184 223.657 565.184 222C565.184 220.343 566.527 219 568.184 219C569.841 219 571.184 220.343 571.184 222Z" fill="white" stroke="#FF6B35" stroke-width="2"/>
<path d="M629.805 209C629.805 210.657 628.462 212 626.805 212C625.148 212 623.805 210.657 623.805 209C623.805 207.343 625.148 206 626.805 206C628.462 206 629.805 207.343 629.805 209Z" fill="white" stroke="#FF6B35" stroke-width="2"/>
<path d="M692.469 152C692.469 153.657 691.126 155 689.469 155C687.812 155 686.469 153.657 686.469 152C686.469 150.343 687.812 149 689.469 149C691.126 149 692.469 150.343 692.469 152Z" fill="white" stroke="#FF6B35" stroke-width="2"/>
<path d="M753.112 197C753.112 198.657 751.769 200 750.112 200C748.455 200 747.112 198.657 747.112 197C747.112 195.343 748.455 194 750.112 194C751.769 194 753.112 195.343 753.112 197Z" fill="white" stroke="#FF6B35" stroke-width="2"/>
<path d="M812.744 268C812.744 269.657 811.401 271 809.744 271C808.087 271 806.744 269.657 806.744 268C806.744 266.343 808.087 265 809.744 265C811.401 265 812.744 266.343 812.744 268Z" fill="white" stroke="#FF6B35" stroke-width="2"/>
<path d="M873.386 291C873.386 292.657 872.043 294 870.386 294C868.73 294 867.386 292.657 867.386 291C867.386 289.343 868.73 288 870.386 288C872.043 288 873.386 289.343 873.386 291Z" fill="white" stroke="#FF6B35" stroke-width="2"/>
<path d="M936.051 226C936.051 227.657 934.707 229 933.051 229C931.394 229 930.051 227.657 930.051 226C930.051 224.343 931.394 223 933.051 223C934.707 223 936.051 224.343 936.051 226Z" fill="white" stroke="#FF6B35" stroke-width="2"/>
<path d="M995.682 131C995.682 132.657 994.339 134 992.682 134C991.026 134 989.682 132.657 989.682 131C989.682 129.343 991.026 128 992.682 128C994.339 128 995.682 129.343 995.682 131Z" fill="white" stroke="#FF6B35" stroke-width="2"/>
<path d="M1054.3 174C1054.3 175.657 1052.96 177 1051.3 177C1049.65 177 1048.3 175.657 1048.3 174C1048.3 172.343 1049.65 171 1051.3 171C1052.96 171 1054.3 172.343 1054.3 174Z" fill="white" stroke="#FF6B35" stroke-width="2"/>
<path d="M1115.96 182C1115.96 183.657 1114.61 185 1112.96 185C1111.3 185 1109.96 183.657 1109.96 182C1109.96 180.343 1111.3 179 1112.96 179C1114.61 179 1115.96 180.343 1115.96 182Z" fill="white" stroke="#FF6B35" stroke-width="2"/>
<rect x="84" width="40" height="4" rx="2" fill="#05668D"/>
<path d="M82.0824 26H83.3551L85.6023 17.8864H85.6818L87.929 26H89.2017L91.9858 15.8182H90.733L88.6051 24.1108H88.5057L86.3381 15.8182H84.946L82.7784 24.1108H82.679L80.5511 15.8182H79.2983L82.0824 26ZM96.2937 26.1591C97.8448 26.1591 98.9784 25.3835 99.3363 24.2301L98.2028 23.9119C97.9045 24.7074 97.2134 25.1051 96.2937 25.1051C94.9166 25.1051 93.967 24.2152 93.9123 22.5795H99.4556V22.0824C99.4556 19.2386 97.7653 18.2642 96.1744 18.2642C94.1062 18.2642 92.734 19.8949 92.734 22.2415C92.734 24.5881 94.0863 26.1591 96.2937 26.1591ZM93.9123 21.5653C93.9918 20.3771 94.832 19.3182 96.1744 19.3182C97.4471 19.3182 98.2624 20.2727 98.2624 21.5653H93.9123ZM104.882 26.1591C106.433 26.1591 107.567 25.3835 107.925 24.2301L106.791 23.9119C106.493 24.7074 105.802 25.1051 104.882 25.1051C103.505 25.1051 102.555 24.2152 102.501 22.5795H108.044V22.0824C108.044 19.2386 106.354 18.2642 104.763 18.2642C102.695 18.2642 101.322 19.8949 101.322 22.2415C101.322 24.5881 102.675 26.1591 104.882 26.1591ZM102.501 21.5653C102.58 20.3771 103.42 19.3182 104.763 19.3182C106.036 19.3182 106.851 20.2727 106.851 21.5653H102.501ZM110.269 26H111.442V23.1413L112.262 22.3807L115.121 26H116.613L113.147 21.625L116.374 18.3636H114.922L111.581 21.7642H111.442V15.8182H110.269V26ZM119.497 15.8182H118.324V26H119.497V15.8182ZM122.842 28.8438C123.901 28.8438 124.652 28.282 125.089 27.1136L128.341 18.3835L127.058 18.3636L124.95 24.4489H124.87L122.763 18.3636H121.49L124.314 26.0398L124.095 26.6364C123.677 27.7798 123.14 27.8892 122.285 27.6705L121.987 28.7045C122.106 28.7642 122.444 28.8438 122.842 28.8438Z" fill="#495057"/>
<rect x="170" width="40" height="4" rx="2" fill="#ACB5BD"/>
<path d="M162.233 15.8182V26H163.386V18.2642H163.486L166.668 26H167.781L170.963 18.2642H171.062V26H172.216V15.8182H170.744L167.284 24.2699H167.165L163.705 15.8182H162.233ZM178.386 26.1591C180.454 26.1591 181.846 24.5881 181.846 22.2216C181.846 19.8352 180.454 18.2642 178.386 18.2642C176.317 18.2642 174.925 19.8352 174.925 22.2216C174.925 24.5881 176.317 26.1591 178.386 26.1591ZM178.386 25.1051C176.815 25.1051 176.099 23.7528 176.099 22.2216C176.099 20.6903 176.815 19.3182 178.386 19.3182C179.957 19.3182 180.673 20.6903 180.673 22.2216C180.673 23.7528 179.957 25.1051 178.386 25.1051ZM185.25 21.4062C185.25 20.0739 186.075 19.3182 187.199 19.3182C188.288 19.3182 188.949 20.0291 188.949 21.2273V26H190.122V21.1477C190.122 19.1989 189.083 18.2642 187.537 18.2642C186.384 18.2642 185.668 18.7812 185.31 19.5568H185.21V18.3636H184.077V26H185.25V21.4062ZM196.027 18.3636H194.397V16.5341H193.223V18.3636H192.07V19.358H193.223V24.1307C193.223 25.4631 194.297 26.0994 195.292 26.0994C195.729 26.0994 196.007 26.0199 196.167 25.9602L195.928 24.9062C195.829 24.9261 195.669 24.9659 195.411 24.9659C194.894 24.9659 194.397 24.8068 194.397 23.8125V19.358H196.027V18.3636ZM199.57 21.4062C199.57 20.0739 200.42 19.3182 201.578 19.3182C202.682 19.3182 203.348 20.0142 203.348 21.2273V26H204.521V21.1477C204.521 19.1839 203.477 18.2642 201.916 18.2642C200.713 18.2642 200.027 18.7663 199.669 19.5568H199.57V15.8182H198.396V26H199.57V21.4062ZM208.281 15.8182H207.108V26H208.281V15.8182ZM211.626 28.8438C212.685 28.8438 213.435 28.282 213.873 27.1136L217.124 18.3835L215.842 18.3636L213.734 24.4489H213.654L211.546 18.3636H210.274L213.097 26.0398L212.879 26.6364C212.461 27.7798 211.924 27.8892 211.069 27.6705L210.771 28.7045C210.89 28.7642 211.228 28.8438 211.626 28.8438Z" fill="#ACB5BD"/>
<rect x="251" width="40" height="4" rx="2" fill="#ACB5BD"/>
<path d="M250.358 15.8182L254.037 21.804V26H255.27V21.804L258.949 15.8182H257.537L254.713 20.571H254.594L251.77 15.8182H250.358ZM262.946 26.1591C264.497 26.1591 265.631 25.3835 265.989 24.2301L264.855 23.9119C264.557 24.7074 263.866 25.1051 262.946 25.1051C261.569 25.1051 260.619 24.2152 260.565 22.5795H266.108V22.0824C266.108 19.2386 264.418 18.2642 262.827 18.2642C260.759 18.2642 259.386 19.8949 259.386 22.2415C259.386 24.5881 260.739 26.1591 262.946 26.1591ZM260.565 21.5653C260.644 20.3771 261.484 19.3182 262.827 19.3182C264.099 19.3182 264.915 20.2727 264.915 21.5653H260.565ZM270.58 26.179C271.912 26.179 272.608 25.4631 272.847 24.9659H272.907V26H274.08V20.9688C274.08 18.5426 272.23 18.2642 271.256 18.2642C270.103 18.2642 268.79 18.6619 268.194 20.054L269.307 20.4517C269.566 19.8949 270.177 19.2983 271.296 19.2983C272.375 19.2983 272.907 19.87 272.907 20.8494V20.8892C272.907 21.456 272.33 21.4062 270.938 21.5852C269.521 21.7692 267.975 22.0824 267.975 23.8324C267.975 25.3239 269.128 26.179 270.58 26.179ZM270.759 25.125C269.824 25.125 269.148 24.7074 269.148 23.892C269.148 22.9972 269.963 22.7188 270.878 22.5994C271.375 22.5398 272.708 22.4006 272.907 22.1619V23.2358C272.907 24.1903 272.151 25.125 270.759 25.125ZM276.661 26H277.835V21.1676C277.835 20.1335 278.65 19.3778 279.764 19.3778C280.077 19.3778 280.4 19.4375 280.48 19.4574V18.2642C280.345 18.2543 280.037 18.2443 279.863 18.2443C278.948 18.2443 278.153 18.7614 277.875 19.517H277.795V18.3636H276.661V26ZM283.484 15.8182H282.31V26H283.484V15.8182ZM286.828 28.8438C287.887 28.8438 288.638 28.282 289.076 27.1136L292.327 18.3835L291.044 18.3636L288.936 24.4489H288.857L286.749 18.3636H285.476L288.3 26.0398L288.081 26.6364C287.664 27.7798 287.127 27.8892 286.272 27.6705L285.973 28.7045C286.093 28.7642 286.431 28.8438 286.828 28.8438Z" fill="#ACB5BD"/>
<defs>
<linearGradient id="paint0_linear" x1="81.3281" y1="130.5" x2="81.3281" y2="375.016" gradientUnits="userSpaceOnUse">
<stop stop-color="#18A0FB"/>
<stop offset="1" stop-color="#18A0FB" stop-opacity="0"/>
</linearGradient>
</defs>
</svg>
