<svg width="49" height="32" viewBox="0 0 49 32" fill="none" xmlns="http://www.w3.org/2000/svg">
<path d="M30.5749 5.5752H17.8118V26.4212H30.5749V5.5752Z" fill="#FF5F00"/>
<path d="M19.1264 15.9999C19.1248 13.9926 19.5799 12.0113 20.4571 10.2058C21.3343 8.40033 22.6107 6.81806 24.1897 5.57873C22.234 4.04177 19.8854 3.08604 17.4122 2.82074C14.9391 2.55545 12.4412 2.9913 10.204 4.07849C7.96685 5.16568 6.08068 6.86034 4.76108 8.96878C3.44149 11.0772 2.7417 13.5144 2.7417 16.0017C2.7417 18.4891 3.44149 20.9263 4.76108 23.0347C6.08068 25.1431 7.96685 26.8378 10.204 27.925C12.4412 29.0122 14.9391 29.448 17.4122 29.1827C19.8854 28.9174 22.234 27.9617 24.1897 26.4248C22.6102 25.185 21.3335 23.6022 20.4563 21.796C19.579 19.9899 19.1243 18.0078 19.1264 15.9999Z" fill="#EB001B"/>
<path d="M44.3727 24.2155V23.7883H44.5569V23.7H44.1187V23.7883H44.2917V24.2155H44.3727ZM45.2234 24.2155V23.7H45.0908L44.9361 24.0682L44.7815 23.7H44.6489V24.2155H44.7447V23.8252L44.8883 24.1602H44.9877L45.1313 23.8252V24.2155H45.2234Z" fill="#F79E1B"/>
<path d="M45.6396 16C45.6396 18.4875 44.9396 20.9248 43.6198 23.0334C42.3 25.1419 40.4135 26.8365 38.1761 27.9235C35.9386 29.0106 33.4405 29.4461 30.9672 29.1805C28.4939 28.9148 26.1452 27.9586 24.1897 26.4212C25.7681 25.1807 27.0441 23.598 27.9216 21.7925C28.799 19.9869 29.2549 18.0056 29.2549 15.9981C29.2549 13.9907 28.799 12.0094 27.9216 10.2038C27.0441 8.39828 25.7681 6.81557 24.1897 5.57513C26.1452 4.0377 28.4939 3.0815 30.9672 2.81582C33.4405 2.55015 35.9386 2.98572 38.1761 4.07275C40.4135 5.15979 42.3 6.85442 43.6198 8.96293C44.9396 11.0715 45.6396 13.5088 45.6396 15.9963V16Z" fill="#F79E1B"/>
</svg>
