<svg width="64" height="64" viewBox="0 0 64 64" fill="none" xmlns="http://www.w3.org/2000/svg">
<g clip-path="url(#clip0)">
<path d="M63.4667 36.2665L59.2 40.5331L47.4346 49.0345L45.3546 46.9545L45.3972 46.9011C48.6208 46.5694 50.9641 43.6884 50.6325 40.4649C50.3008 37.2413 47.4197 34.898 44.1962 35.2296C41.4059 35.5165 39.2085 37.7395 38.9536 40.5331L38.943 40.5437L35.2 36.7997L49.6 22.3997L63.4667 36.2665Z" fill="#03AA6F"/>
<path d="M63.4667 44.7998L41.0666 63.9999H34.6666L14.3999 56.5333H0.533203V44.7998H14.3999L15.1465 44.4798L19.7333 42.5172L21.8665 41.5998H32.448H38.9334V47.9999H26.1333L40 54.3999L47.4346 49.0345L59.2001 40.5332L63.4667 44.7998Z" fill="#F5D0C7"/>
<path d="M50.6667 41.0666C50.67 44.0757 48.3915 46.5984 45.3974 46.9013L45.3547 46.9546L39.4667 41.0666L38.9441 40.544L38.9547 40.5334C39.23 37.3046 42.0705 34.911 45.2992 35.1861C48.3479 35.4463 50.6849 38.0063 50.6667 41.0666Z" fill="#79DCA0"/>
<path d="M47.4347 49.0347L40 54.4001L26.1333 48.0001H38.9334V41.6L39.4666 41.0667L45.3546 46.9547L47.4347 49.0347Z" fill="#03AA6F"/>
<path d="M35.7333 19.7331C36.5547 19.7437 37.3547 19.4686 37.9947 18.9544C38.574 18.4968 38.9185 17.8046 38.9334 17.0664C38.8971 16.3742 38.4192 15.7843 37.7494 15.605L35.7333 14.933V10.133C34.912 10.1224 34.112 10.3975 33.472 10.9117C32.8927 11.3693 32.5482 12.0615 32.5333 12.7997C32.5696 13.4919 33.0475 14.0818 33.7173 14.261L35.7333 14.933V19.7331ZM35.7333 5.33301C41.0357 5.33301 45.3334 9.63065 45.3334 14.933C45.3334 20.2354 41.0357 24.5331 35.7333 24.5331C30.4309 24.5331 26.1333 20.2354 26.1333 14.933C26.1333 9.63065 30.4308 5.33301 35.7333 5.33301Z" fill="#FFDB6F"/>
<path d="M39.4668 41.0665L38.9335 41.5998H32.4481C31.8763 38.1118 28.5857 35.7471 25.0977 36.3187C22.048 36.8189 19.791 39.427 19.7334 42.5171L15.1467 44.4797L5.8667 35.1997L19.7334 21.333L35.2001 36.7997L38.9441 40.5437L39.4668 41.0665Z" fill="#03AA6F"/>
<path d="M38.9332 17.0665C38.9183 17.8046 38.5737 18.4969 37.9945 18.9545C37.3545 19.4686 36.5545 19.7439 35.7332 19.7331V14.9331L37.7492 15.6051C38.419 15.7844 38.8968 16.3742 38.9332 17.0665Z" fill="#FFDB6F"/>
<path d="M35.7332 10.1331V14.9331L33.7172 14.2611C33.0473 14.0819 32.5695 13.492 32.5332 12.7998C32.5481 12.0616 32.8927 11.3694 33.4718 10.9117C34.1118 10.3976 34.9118 10.1224 35.7332 10.1331Z" fill="#FFDB6F"/>
<path d="M32.4479 41.5998H21.8665L19.7332 42.5171C19.7983 38.9832 22.7155 36.1705 26.2494 36.2355C29.3397 36.2931 31.9477 38.5501 32.4479 41.5998Z" fill="#79DCA0"/>
<path d="M42.6231 4.15017C38.4097 1.51016 33.0572 1.51016 28.8438 4.15017L27.6897 2.35604C32.5921 -0.785347 38.8749 -0.785347 43.7772 2.35604L42.6231 4.15017Z" fill="#FFDB6F"/>
<path d="M21.9478 20.676C21.1894 18.8562 20.7991 16.9042 20.8001 14.9331H22.9334C22.9323 16.6237 23.2673 18.2974 23.9191 19.8569L21.9478 20.676Z" fill="#FFDB6F"/>
<path d="M35.7334 29.8666V27.7332C37.424 27.7343 39.0977 27.3993 40.6572 26.7476L41.4764 28.7188C39.6565 29.4773 37.7045 29.8677 35.7334 29.8666Z" fill="#FFDB6F"/>
<path d="M49.5191 20.6761L47.5479 19.8569C48.1996 18.2974 48.5345 16.6237 48.5335 14.9331H50.6669C50.668 16.9044 50.2776 18.8564 49.5191 20.6761Z" fill="#FFDB6F"/>
<path d="M35.7333 25.5997C29.842 25.5997 25.0667 20.8242 25.0667 14.933C25.0667 9.04187 29.8422 4.26636 35.7333 4.26636C41.6245 4.26636 46.4 9.04187 46.4 14.933C46.3936 20.821 41.6213 25.5933 35.7333 25.5997ZM35.7333 6.39962C31.0208 6.39962 27.1999 10.2204 27.1999 14.933C27.1999 19.6457 31.0207 23.4664 35.7333 23.4664C40.446 23.4664 44.2667 19.6457 44.2667 14.933C44.2614 10.2225 40.4437 6.40499 35.7333 6.39962Z" fill="#FF8030"/>
<path d="M40.3956 13.5369H39.5156V9.81818H37.6811V13.5369H35.3693L32.799 9.81818H31.1484V13.5369H30.2536V14.5312H31.1484V15.6847H30.2536V16.679H31.1484V20H32.9929V16.679H35.5781L37.875 20H39.5156V16.679H40.3956V15.6847H39.5156V14.5312H40.3956V13.5369ZM34.0916 14.5312L34.892 15.6847H32.9929V14.5312H34.0916ZM37.6811 14.5312V15.6847H36.8509L36.0554 14.5312H37.6811ZM32.9929 13.5369V13.0646H33.0774L33.4055 13.5369H32.9929ZM37.5369 16.679H37.6811V16.7585H37.5916L37.5369 16.679Z" fill="#FF8030"/>
</g>
<defs>
<clipPath id="clip0">
<rect width="64" height="64" fill="white"/>
</clipPath>
</defs>
</svg>
