<svg class="fill-current text-teal-500 inline-block h-12 w-12" width="205" height="41" viewBox="0 0 205 41" fill="none" xmlns="http://www.w3.org/2000/svg">
<g style="mix-blend-mode:multiply" opacity="0.2">
<rect width="205" height="41" rx="8" fill="#212429"/>
</g>
<path d="M83.7188 18.5653H84.9886C84.9503 17.1676 83.7145 16.1534 81.9418 16.1534C80.1903 16.1534 78.848 17.1548 78.848 18.6591C78.848 19.8736 79.7173 20.5852 81.1193 20.9645L82.1506 21.2457C83.0838 21.4929 83.804 21.7997 83.804 22.5753C83.804 23.4276 82.9901 23.9901 81.8693 23.9901C80.8551 23.9901 80.0114 23.5384 79.9347 22.5881H78.6136C78.6989 24.169 79.9219 25.1449 81.8778 25.1449C83.9276 25.1449 85.108 24.0668 85.108 22.5881C85.108 21.0156 83.706 20.4062 82.598 20.1335L81.7457 19.9119C81.0639 19.7372 80.1562 19.4176 80.1605 18.5824C80.1605 17.8409 80.8381 17.2912 81.9119 17.2912C82.9134 17.2912 83.625 17.7599 83.7188 18.5653ZM94.2179 16.2727V22.0256C94.2179 23.2486 93.2421 23.9347 92.066 23.9347C90.8983 23.9347 89.9182 23.2486 89.9182 22.0256V16.2727H88.6015V22.0469C88.6015 24.0156 90.1356 25.1449 92.066 25.1449C93.9963 25.1449 95.5347 24.0156 95.5347 22.0469V16.2727H94.2179ZM99.3691 25H100.686V21.9318H102.476C104.5 21.9318 105.501 20.7088 105.501 19.098C105.501 17.4915 104.508 16.2727 102.48 16.2727H99.3691V25ZM100.686 20.8153V17.402H102.339C103.643 17.402 104.176 18.1094 104.176 19.098C104.176 20.0866 103.643 20.8153 102.356 20.8153H100.686ZM108.965 25H110.282V21.9318H112.071C114.096 21.9318 115.097 20.7088 115.097 19.098C115.097 17.4915 114.104 16.2727 112.076 16.2727H108.965V25ZM110.282 20.8153V17.402H111.935C113.239 17.402 113.772 18.1094 113.772 19.098C113.772 20.0866 113.239 20.8153 111.952 20.8153H110.282ZM126.142 20.6364C126.142 17.8452 124.471 16.1534 122.213 16.1534C119.946 16.1534 118.279 17.8452 118.279 20.6364C118.279 23.4233 119.946 25.1193 122.213 25.1193C124.471 25.1193 126.142 23.4276 126.142 20.6364ZM124.838 20.6364C124.838 22.7628 123.713 23.9176 122.213 23.9176C120.708 23.9176 119.588 22.7628 119.588 20.6364C119.588 18.5099 120.708 17.3551 122.213 17.3551C123.713 17.3551 124.838 18.5099 124.838 20.6364ZM129.703 25H131.02V21.6974H132.81C132.84 21.6974 132.865 21.6974 132.895 21.6974L134.668 25H136.168L134.233 21.4673C135.303 21.071 135.835 20.1804 135.835 19.0085C135.835 17.402 134.838 16.2727 132.814 16.2727H129.703V25ZM131.02 20.5639V17.402H132.674C133.973 17.402 134.51 18.0199 134.51 19.0085C134.51 19.9929 133.973 20.5639 132.691 20.5639H131.02ZM138.927 17.4062H141.646V25H142.959V17.4062H145.682V16.2727H138.927V17.4062Z" fill="#FAFAFA"/>
<path d="M53.9999 27.6667C57.6818 27.6667 60.6666 24.6819 60.6666 21C60.6666 17.3181 57.6818 14.3333 53.9999 14.3333C50.318 14.3333 47.3333 17.3181 47.3333 21C47.3333 24.6819 50.318 27.6667 53.9999 27.6667Z" stroke="#FAFAFA" stroke-width="1.3" stroke-linecap="round" stroke-linejoin="round"/>
<path d="M52.0601 19C52.2168 18.5545 52.5262 18.1788 52.9334 17.9394C53.3406 17.7001 53.8193 17.6126 54.2848 17.6925C54.7504 17.7723 55.1726 18.0144 55.4768 18.3757C55.781 18.737 55.9474 19.1944 55.9467 19.6667C55.9467 21 53.9467 21.6667 53.9467 21.6667" stroke="#FAFAFA" stroke-width="1.3" stroke-linecap="round" stroke-linejoin="round"/>
<path d="M54 23.6667V24" stroke="#FAFAFA" stroke-width="1.3" stroke-linecap="round" stroke-linejoin="round"/>
</svg>
